<svg xmlns="http://www.w3.org/2000/svg"><defs><font horiz-adv-x="1000"><font-face font-family="fontello" font-weight="400" ascent="850" descent="-150"/><glyph glyph-name="home" unicode="" d="M786 296v-268q0-15-11-25t-25-11h-214v214h-143v-214h-214q-15 0-25 11t-11 25v272l321 264 321-264q1-1 1-3zm124 39l-35-41q-4-5-12-6h-2q-7 0-12 4l-386 322-386-322q-7-4-13-4-7 1-12 6l-35 41q-4 6-4 13t6 12l401 334q18 15 42 15t42-15l136-114v109q0 8 5 13t13 5h107q8 0 13-5t5-13v-228l122-102q6-4 6-12t-4-13z" horiz-adv-x="928.571"/><glyph glyph-name="th-list" unicode="" d="M286 154v-107q0-22-16-38t-38-16h-179q-22 0-38 16t-16 38v107q0 22 16 38t38 16h179q22 0 38-16t16-38zm0 286v-107q0-22-16-38t-38-16h-179q-22 0-38 16t-16 38v107q0 22 16 38t38 16h179q22 0 38-16t16-38zm714-286v-107q0-22-16-38t-38-16h-536q-22 0-38 16t-16 38v107q0 22 16 38t38 16h536q22 0 38-16t16-38zm-714 571v-107q0-22-16-38t-38-16h-179q-22 0-38 16t-16 38v107q0 22 16 38t38 16h179q22 0 38-16t16-38zm714-286v-107q0-22-16-38t-38-16h-536q-22 0-38 16t-16 38v107q0 22 16 38t38 16h536q22 0 38-16t16-38zm0 286v-107q0-22-16-38t-38-16h-536q-22 0-38 16t-16 38v107q0 22 16 38t38 16h536q22 0 38-16t16-38z" horiz-adv-x="1000"/><glyph glyph-name="th" unicode="" d="M286 154v-107q0-22-16-38t-38-16h-179q-22 0-38 16t-16 38v107q0 22 16 38t38 16h179q22 0 38-16t16-38zm0 286v-107q0-22-16-38t-38-16h-179q-22 0-38 16t-16 38v107q0 22 16 38t38 16h179q22 0 38-16t16-38zm357-286v-107q0-22-16-38t-38-16h-179q-22 0-38 16t-16 38v107q0 22 16 38t38 16h179q22 0 38-16t16-38zm-357 571v-107q0-22-16-38t-38-16h-179q-22 0-38 16t-16 38v107q0 22 16 38t38 16h179q22 0 38-16t16-38zm357-286v-107q0-22-16-38t-38-16h-179q-22 0-38 16t-16 38v107q0 22 16 38t38 16h179q22 0 38-16t16-38zm357-286v-107q0-22-16-38t-38-16h-179q-22 0-38 16t-16 38v107q0 22 16 38t38 16h179q22 0 38-16t16-38zm-357 571v-107q0-22-16-38t-38-16h-179q-22 0-38 16t-16 38v107q0 22 16 38t38 16h179q22 0 38-16t16-38zm357-286v-107q0-22-16-38t-38-16h-179q-22 0-38 16t-16 38v107q0 22 16 38t38 16h179q22 0 38-16t16-38zm0 286v-107q0-22-16-38t-38-16h-179q-22 0-38 16t-16 38v107q0 22 16 38t38 16h179q22 0 38-16t16-38z" horiz-adv-x="1000"/><glyph glyph-name="cog" unicode="" d="M571 350q0 59-42 101t-101 42-101-42-42-101 42-101 101-42 101 42 42 101zm286 61v-124q0-7-4-13t-11-7l-103-16q-11-30-22-51 20-28 60-77 6-7 6-14t-5-13q-15-21-55-60t-52-40q-7 0-15 5l-77 60q-25-13-51-21-9-76-16-104-4-16-20-16h-124q-8 0-14 5t-6 12l-16 103q-27 9-50 21l-79-60q-6-5-14-5t-14 6q-70 64-92 94-4 6-4 13t4 13q8 12 28 37t30 39q-15 28-23 55l-102 15q-7 1-12 7t-4 13v124q0 7 4 13t11 7l104 16q8 26 22 51-22 32-60 77-6 7-6 13t5 13q15 20 55 60t53 40q7 0 15-6l77-60q25 13 51 21 9 76 16 104 4 16 20 16h124q8 0 14-5t6-12l16-103q27-9 50-21l79 60q5 5 13 5 7 0 14-6 72-66 92-95 4-4 4-12 0-7-4-13-8-12-28-37t-30-39q15-28 23-55l102-16q7-1 12-7t4-13z" horiz-adv-x="857.143"/><glyph glyph-name="attention" unicode="" d="M571 83v106q0 8-5 13t-13 5h-107q-7 0-13-5t-5-13v-106q0-8 5-13t13-5h107q7 0 13 5t5 13zm-1 209l10 256q0 7-6 11-7 6-13 6h-123q-6 0-13-6-6-4-6-12l9-255q0-6 6-9t13-4h103q8 0 13 4t6 9zm-8 521l429-786q20-35-1-70-9-16-26-26t-35-9h-857q-19 0-35 9t-26 26q-21 35-1 70l429 786q9 17 26 27t36 10 36-10 26-27z" horiz-adv-x="1000"/><glyph glyph-name="cancel" unicode="" d="M724 112q0-22-16-38l-76-76q-16-16-38-16t-38 16l-164 164-164-164q-16-16-38-16t-38 16l-76 76q-16 16-16 38t16 38l164 164-164 164q-16 16-16 38t16 38l76 76q16 16 38 16t38-16l164-164 164 164q16 16 38 16t38-16l76-76q16-16 16-38t-16-38l-164-164 164-164q16-16 16-38z" horiz-adv-x="785.714"/><glyph glyph-name="cancel-circled" unicode="" d="M641 224q0 15-11 25l-101 101 101 101q11 11 11 25 0 15-11 26l-50 50q-11 11-26 11t-25-11l-101-101-101 101q-11 11-25 11-15 0-26-11l-50-50q-11-11-11-26t11-25l101-101-101-101q-11-11-11-25 0-15 11-26l50-50q11-11 26-11t25 11l101 101 101-101q11-11 25-11 15 0 26 11l50 50q11 11 11 26zm216 126q0-117-57-215t-156-156-215-57-215 57-156 156-57 215 57 215 156 156 215 57 215-57 156-156 57-215z" horiz-adv-x="857.143"/><glyph glyph-name="attention-circled" unicode="" d="M429 779q117 0 215-57t156-156 57-215-57-215-156-156-215-57-215 57-156 156-57 215 57 215 156 156 215 57zm71-696v106q0 8-5 13t-12 5h-107q-7 0-13-6t-6-13v-106q0-7 6-13t13-6h107q7 0 12 5t5 13zm-1 192l10 347q0 7-6 10-6 4-13 4h-123q-8 0-13-4-6-3-6-10l9-347q0-6 6-10t13-4h103q8 0 13 4t6 10z" horiz-adv-x="857.143"/><glyph glyph-name="video-1" unicode="" d="M0-29v758h1000v-758h-1000zm123 123h754v512h-754v-512zm266 82v340l293-170z" horiz-adv-x="1000"/><glyph glyph-name="mail" unicode="" d="M0-29l324 342 176-100 176 100 324-342h-1000zm0 113v414l254-146zm0 504v141h1000v-141l-500-285zm746-236l254 146v-414z" horiz-adv-x="1000"/><glyph glyph-name="help-circled" unicode="" d="M500 82v107q0 8-5 13t-13 5h-107q-8 0-13-5t-5-13v-107q0-8 5-13t13-5h107q8 0 13 5t5 13zm143 375q0 49-31 91t-77 65-95 23q-136 0-207-119-8-13 4-23l74-56q4-3 11-3 9 0 14 7 30 38 48 51 19 13 48 13 27 0 48-15t21-33q0-21-11-34t-38-25q-35-16-64-48t-29-70v-20q0-8 5-13t13-5h107q8 0 13 5t5 13q0 11 12 28t30 28q18 10 27 16t26 20 25 27 16 34 7 45zm214-107q0-117-57-215t-156-156-215-57-215 57-156 156-57 215 57 215 156 156 215 57 215-57 156-156 57-215z" horiz-adv-x="857.143"/><glyph glyph-name="info-circled" unicode="" d="M571 82v89q0 8-5 13t-13 5h-54v286q0 8-5 13t-13 5h-179q-8 0-13-5t-5-13v-89q0-8 5-13t13-5h54v-179h-54q-8 0-13-5t-5-13v-89q0-8 5-13t13-5h250q8 0 13 5t5 13zm-71 500v89q0 8-5 13t-13 5h-107q-8 0-13-5t-5-13v-89q0-8 5-13t13-5h107q8 0 13 5t5 13zm357-232q0-117-57-215t-156-156-215-57-215 57-156 156-57 215 57 215 156 156 215 57 215-57 156-156 57-215z" horiz-adv-x="857.143"/><glyph glyph-name="th-large" unicode="" d="M429 279v-214q0-29-21-50t-50-21h-286q-29 0-50 21t-21 50v214q0 29 21 50t50 21h286q29 0 50-21t21-50zm0 429v-214q0-29-21-50t-50-21h-286q-29 0-50 21t-21 50v214q0 29 21 50t50 21h286q29 0 50-21t21-50zm500-429v-214q0-29-21-50t-50-21h-286q-29 0-50 21t-21 50v214q0 29 21 50t50 21h286q29 0 50-21t21-50zm0 429v-214q0-29-21-50t-50-21h-286q-29 0-50 21t-21 50v214q0 29 21 50t50 21h286q29 0 50-21t21-50z" horiz-adv-x="928.571"/><glyph glyph-name="comment" unicode="" d="M1000 350q0-97-67-179t-182-130-251-48q-39 0-81 4-110-98-257-135-27-8-64-12-9-1-17 5t-10 16v1q-2 2 0 7t1 6 3 5l3 5 4 5 4 5q4 4 17 19t19 21 17 22 18 28 15 33 15 42q-88 50-138 123t-50 157q0 73 40 139t107 114 160 76 194 28q136 0 251-48t182-130 67-179z" horiz-adv-x="1000"/><glyph glyph-name="down-open" unicode="" d="M899 457q0-30-21-50l-363-363q-21-21-51-21t-50 21l-363 363q-21 20-21 50t21 51l41 42q22 21 51 21 30 0 50-21l271-271 271 271q21 21 50 21t51-21l42-42q21-22 21-51z" horiz-adv-x="928.571"/><glyph glyph-name="left-open" unicode="" d="M414-28l-364 363q-21 21-21 50t21 50l364 363q21 21 50 21t50-21l42-42q21-21 21-50t-21-50l-271-271 271-271q21-21 21-51t-21-50l-42-42q-21-21-50-21t-50 21z" horiz-adv-x="642.857"/><glyph glyph-name="right-open" unicode="" d="M613 386q0-29-21-51l-364-363q-21-21-50-21t-50 21l-42 42q-21 22-21 51 0 30 21 50l271 271-271 271q-21 22-21 51 0 30 21 50l42 42q20 21 50 21t50-21l364-363q21-21 21-50z" horiz-adv-x="642.857"/><glyph glyph-name="up-open" unicode="" d="M899 171q0-30-21-50l-42-42q-21-21-51-21t-50 21l-271 271-271-271q-20-21-50-21t-50 21l-42 42q-21 20-21 50t21 51l363 363q21 21 50 21t51-21l363-363q21-21 21-51z" horiz-adv-x="928.571"/><glyph glyph-name="cw-circle" unicode="" d="M1000 349q0-136-67-251t-182-182-251-67-251 67-182 182-67 251 67 251 182 182 251 67 251-67 182-182 67-251zm-260-80l180 180h-120q-30 92-119 153t-187 61q-131 0-224-93t-93-224 93-224 224-93 223 92l-62 71q-66-64-156-64-91 0-156 65t-65 156 65 156 156 65q95 0 156-64 8-8 12-17t7-21 6-19h-120z" horiz-adv-x="1000"/><glyph glyph-name="spin5" unicode="" d="M462 850c-6 0-12-5-12-12v-182c0-6 5-12 12-12h70c6 0 12 5 12 12v182c0 6-5 12-12 12h-70zm250-47c-4 0-8-2-10-6l-91-158c-3-6-1-13 4-16l60-35h1c6-3 13-1 16 4l91 158c3 6 1 13-4 16l-61 35c-2 1-4 1-5 2zm-428-3c-2 0-4-1-5-2l-61-35c-5-3-7-10-4-16l91-157v-1c3-6 10-7 16-4l61 35c5 3 7 10 4 16l-91 157v1c-2 4-6 6-10 6zm620-162c-2 0-4-1-5-2l-157-91h-1c-6-3-7-10-4-16l35-61c3-5 10-7 16-4l157 91h1c6 3 7 10 4 16l-35 61c-2 4-6 6-10 6zm-810-5c-4 0-8-2-10-6l-35-61c-3-6-1-13 4-16l158-91c6-3 13-1 16 4l35 60v1c3 6 1 13-4 16l-158 91c-2 1-4 1-5 2zm713-234c-6 0-12-5-12-12v-70c0-6 5-12 12-12h182c6 0 12 5 12 12v70c0 6-5 12-12 12h-182zm-795-5c-6 0-12-5-12-12v-70c0-6 5-12 12-12h182c6 0 12 5 12 12v70c0 6-5 12-12 12h-182zm773-153c-4 0-8-2-10-6l-35-60v-1c-3-6-1-13 4-16l158-91c6-3 13-1 16 4l35 61c3 6 1 13-4 16l-158 91c-2 1-4 1-5 2zm-566-5c-2 0-4-1-5-2l-157-91h-1c-6-3-7-10-4-16l35-61c3-5 10-7 16-4l157 91h1c6 3 7 10 4 16l-35 61c-2 4-6 6-10 6zm467-121c-2 0-4-1-5-2l-61-35c-5-3-7-10-4-16l91-157v-1c3-6 10-7 16-4l61 35c5 3 7 10 4 16l-91 157v1c-2 4-6 6-10 6zm-366-3c-4 0-8-2-10-6l-91-158c-3-6-1-13 4-16l61-35c6-3 13-1 16 4l91 158c3 6 1 13-4 16l-60 35h-1c-2 1-4 2-5 2zm148-57c-6 0-12-5-12-12v-182c0-6 5-12 12-12h70c6 0 12 5 12 12v182c0 6-5 12-12 12h-70z" horiz-adv-x="1000"/><glyph glyph-name="angle-double-left" unicode="" d="M350 82q0-7-6-13l-28-28q-6-6-13-6t-13 6l-260 260q-6 6-6 13t6 13l260 260q6 6 13 6t13-6l28-28q6-6 6-13t-6-13l-219-219 219-219q6-6 6-13zm214 0q0-7-6-13l-28-28q-6-6-13-6t-13 6l-260 260q-6 6-6 13t6 13l260 260q6 6 13 6t13-6l28-28q6-6 6-13t-6-13l-219-219 219-219q6-6 6-13z" horiz-adv-x="571.429"/><glyph glyph-name="angle-double-right" unicode="" d="M332 314q0-7-6-13l-260-260q-6-6-13-6t-13 6l-28 28q-6 6-6 13t6 13l219 219-219 219q-6 6-6 13t6 13l28 28q6 6 13 6t13-6l260-260q6-6 6-13zm214 0q0-7-6-13l-260-260q-6-6-13-6t-13 6l-28 28q-6 6-6 13t6 13l219 219-219 219q-6 6-6 13t6 13l28 28q6 6 13 6t13-6l260-260q6-6 6-13z" horiz-adv-x="571.429"/><glyph glyph-name="angle-double-up" unicode="" d="M600 118q0-7-6-13l-28-28q-6-6-13-6t-13 6l-219 219-219-219q-6-6-13-6t-13 6l-28 28q-6 6-6 13t6 13l260 260q6 6 13 6t13-6l260-260q6-6 6-13zm0 214q0-7-6-13l-28-28q-6-6-13-6t-13 6l-219 219-219-219q-6-6-13-6t-13 6l-28 28q-6 6-6 13t6 13l260 260q6 6 13 6t13-6l260-260q6-6 6-13z" horiz-adv-x="642.857"/><glyph glyph-name="angle-double-down" unicode="" d="M600 368q0-7-6-13l-260-260q-6-6-13-6t-13 6l-260 260q-6 6-6 13t6 13l28 28q6 6 13 6t13-6l219-219 219 219q6 6 13 6t13-6l28-28q6-6 6-13zm0 214q0-7-6-13l-260-260q-6-6-13-6t-13 6l-260 260q-6 6-6 13t6 13l28 28q6 6 13 6t13-6l219-219 219 219q6 6 13 6t13-6l28-28q6-6 6-13z" horiz-adv-x="642.857"/><glyph glyph-name="angle-left" unicode="" d="M350 546q0-7-6-13l-219-219 219-219q6-6 6-13t-6-13l-28-28q-6-6-13-6t-13 6l-260 260q-6 6-6 13t6 13l260 260q6 6 13 6t13-6l28-28q6-6 6-13z" horiz-adv-x="357.143"/><glyph glyph-name="angle-right" unicode="" d="M332 314q0-7-6-13l-260-260q-6-6-13-6t-13 6l-28 28q-6 6-6 13t6 13l219 219-219 219q-6 6-6 13t6 13l28 28q6 6 13 6t13-6l260-260q6-6 6-13z" horiz-adv-x="357.143"/><glyph glyph-name="angle-up" unicode="" d="M600 189q0-7-6-13l-28-28q-6-6-13-6t-13 6l-219 219-219-219q-6-6-13-6t-13 6l-28 28q-6 6-6 13t6 13l260 260q6 6 13 6t13-6l260-260q6-6 6-13z" horiz-adv-x="642.857"/><glyph glyph-name="angle-down" unicode="" d="M600 439q0-7-6-13l-260-260q-6-6-13-6t-13 6l-260 260q-6 6-6 13t6 13l28 28q6 6 13 6t13-6l219-219 219 219q6 6 13 6t13-6l28-28q6-6 6-13z" horiz-adv-x="642.857"/><glyph glyph-name="angle-circled-left" unicode="" d="M507 72l57 57q11 11 11 25t-11 25l-171 171 171 171q11 11 11 25t-11 25l-57 57q-11 11-25 11t-25-11l-253-253q-11-11-11-25t11-25l253-253q11-11 25-11t25 11zm350 278q0-117-57-215t-156-156-215-57-215 57-156 156-57 215 57 215 156 156 215 57 215-57 156-156 57-215z" horiz-adv-x="857.143"/><glyph glyph-name="angle-circled-right" unicode="" d="M400 72l253 253q11 11 11 25t-11 25l-253 253q-11 11-25 11t-25-11l-57-57q-11-11-11-25t11-25l171-171-171-171q-11-11-11-25t11-25l57-57q11-11 25-11t25 11zm457 278q0-117-57-215t-156-156-215-57-215 57-156 156-57 215 57 215 156 156 215 57 215-57 156-156 57-215z" horiz-adv-x="857.143"/><glyph glyph-name="angle-circled-up" unicode="" d="M650 214l57 57q11 11 11 25t-11 25l-253 253q-11 11-25 11t-25-11l-253-253q-11-11-11-25t11-25l57-57q11-11 25-11t25 11l171 171 171-171q11-11 25-11t25 11zm207 136q0-117-57-215t-156-156-215-57-215 57-156 156-57 215 57 215 156 156 215 57 215-57 156-156 57-215z" horiz-adv-x="857.143"/><glyph glyph-name="angle-circled-down" unicode="" d="M454 125l253 253q11 11 11 25t-11 25l-57 57q-11 11-25 11t-25-11l-171-171-171 171q-11 11-25 11t-25-11l-57-57q-11-11-11-25t11-25l253-253q11-11 25-11t25 11zm403 225q0-117-57-215t-156-156-215-57-215 57-156 156-57 215 57 215 156 156 215 57 215-57 156-156 57-215z" horiz-adv-x="857.143"/><glyph glyph-name="picture" unicode="" d="M357 529q0-45-31-76t-76-31-76 31-31 76 31 76 76 31 76-31 31-76zm571-214v-250h-786v107l179 179 89-89 286 286zm54 393h-893q-7 0-13-5t-5-13v-679q0-7 5-13t13-5h893q7 0 13 5t5 13v679q0 7-5 13t-13 5zm89-18v-679q0-37-26-63t-63-26h-893q-37 0-63 26t-26 63v679q0 37 26 63t63 26h893q37 0 63-26t26-63z" horiz-adv-x="1071.429"/><glyph glyph-name="video" unicode="" d="M214-43v71q0 15-11 25t-25 11h-71q-15 0-25-11t-11-25v-71q0-15 11-25t25-11h71q15 0 25 11t11 25zm0 214v71q0 15-11 25t-25 11h-71q-15 0-25-11t-11-25v-71q0-15 11-25t25-11h71q15 0 25 11t11 25zm0 214v71q0 15-11 25t-25 11h-71q-15 0-25-11t-11-25v-71q0-15 11-25t25-11h71q15 0 25 11t11 25zm571-429v286q0 15-11 25t-25 11h-429q-15 0-25-11t-11-25v-286q0-15 11-25t25-11h429q15 0 25 11t11 25zm-571 643v71q0 15-11 25t-25 11h-71q-15 0-25-11t-11-25v-71q0-15 11-25t25-11h71q15 0 25 11t11 25zm786-643v71q0 15-11 25t-25 11h-71q-15 0-25-11t-11-25v-71q0-15 11-25t25-11h71q15 0 25 11t11 25zm-214 429v286q0 15-11 25t-25 11h-429q-15 0-25-11t-11-25v-286q0-15 11-25t25-11h429q15 0 25 11t11 25zm214-214v71q0 15-11 25t-25 11h-71q-15 0-25-11t-11-25v-71q0-15 11-25t25-11h71q15 0 25 11t11 25zm0 214v71q0 15-11 25t-25 11h-71q-15 0-25-11t-11-25v-71q0-15 11-25t25-11h71q15 0 25 11t11 25zm0 214v71q0 15-11 25t-25 11h-71q-15 0-25-11t-11-25v-71q0-15 11-25t25-11h71q15 0 25 11t11 25zm71 89v-750q0-37-26-63t-63-26h-893q-37 0-63 26t-26 63v750q0 37 26 63t63 26h893q37 0 63-26t26-63z" horiz-adv-x="1071.429"/><glyph glyph-name="calendar" unicode="" d="M71-79h161v161h-161v-161zm196 0h179v161h-179v-161zm-196 196h161v179h-161v-179zm196 0h179v179h-179v-179zm-196 214h161v161h-161v-161zm411-411h179v161h-179v-161zm-214 411h179v161h-179v-161zm429-411h161v161h-161v-161zm-214 196h179v179h-179v-179zm-196 482v161q0 7-5 13t-13 5h-36q-7 0-13-5t-5-13v-161q0-7 5-13t13-5h36q7 0 13 5t5 13zm411-482h161v179h-161v-179zm-214 214h179v161h-179v-161zm214 0h161v161h-161v-161zm18 268v161q0 7-5 13t-13 5h-36q-7 0-13-5t-5-13v-161q0-7 5-13t13-5h36q7 0 13 5t5 13zm214 36v-714q0-29-21-50t-50-21h-786q-29 0-50 21t-21 50v714q0 29 21 50t50 21h71v54q0 37 26 63t63 26h36q37 0 63-26t26-63v-54h214v54q0 37 26 63t63 26h36q37 0 63-26t26-63v-54h71q29 0 50-21t21-50z" horiz-adv-x="928.571"/><glyph glyph-name="camera" unicode="" d="M536 475q66 0 114-47t47-114-47-114-114-47-114 47-47 114 47 114 114 47zm393 232q59 0 101-42t42-101v-500q0-59-42-101t-101-42h-786q-59 0-101 42t-42 101v500q0 59 42 101t101 42h125l28 76q11 27 39 47t58 20h286q30 0 58-20t39-47l28-76h125zm-393-643q103 0 177 73t73 177-73 177-177 73-177-73-73-177 73-177 177-73z" horiz-adv-x="1071.429"/><glyph glyph-name="search" unicode="" d="M643 386q0 103-73 177t-177 73-177-73-73-177 73-177 177-73 177 73 73 177zm286-464q0-29-21-50t-50-21q-30 0-50 21l-191 191q-100-69-223-69-80 0-153 31t-126 84-84 126-31 153 31 153 84 126 126 84 153 31 153-31 126-84 84-126 31-153q0-123-69-223l191-191q21-21 21-50z" horiz-adv-x="928.571"/></font>
</defs>
</svg>
